<svg width="652" height="199" viewBox="0 0 652 199" fill="none" xmlns="http://www.w3.org/2000/svg">
  <path
    d="M219.159 129.72C216.839 129.72 214.959 129.04 213.519 127.68C212.159 126.24 211.479 124.32 211.479 121.92V51.72C211.479 49.4 212.119 47.6 213.399 46.32C214.759 45.04 216.599 44.4 218.919 44.4H248.439C257.479 44.4 264.519 46.68 269.559 51.24C274.599 55.72 277.119 62.04 277.119 70.2C277.119 78.36 274.599 84.72 269.559 89.28C264.519 93.84 257.479 96.12 248.439 96.12H226.959V121.92C226.959 124.32 226.239 126.24 224.799 127.68C223.439 129.04 221.559 129.72 219.159 129.72ZM246.519 84.24C257.159 84.24 262.479 79.6 262.479 70.32C262.479 61.04 257.159 56.4 246.519 56.4H226.959V84.24H246.519ZM296.818 129.72C294.658 129.72 292.858 129.12 291.418 127.92C290.058 126.64 289.378 124.84 289.378 122.52V50.88C289.378 48.56 290.058 46.8 291.418 45.6C292.858 44.4 294.658 43.8 296.818 43.8C298.978 43.8 300.778 44.4 302.218 45.6C303.658 46.8 304.378 48.56 304.378 50.88V122.52C304.378 124.84 303.658 126.64 302.218 127.92C300.778 129.12 298.978 129.72 296.818 129.72ZM345.287 68.88C353.447 68.88 359.487 70.92 363.407 75C367.407 79 369.407 85.12 369.407 93.36V122.64C369.407 124.8 368.767 126.52 367.487 127.8C366.207 129 364.447 129.6 362.207 129.6C360.127 129.6 358.407 128.96 357.047 127.68C355.767 126.4 355.127 124.72 355.127 122.64V120C353.767 123.12 351.607 125.56 348.647 127.32C345.767 129.08 342.407 129.96 338.567 129.96C334.647 129.96 331.087 129.16 327.887 127.56C324.687 125.96 322.167 123.76 320.327 120.96C318.487 118.16 317.567 115.04 317.567 111.6C317.567 107.28 318.647 103.88 320.807 101.4C323.047 98.92 326.647 97.12 331.607 96C336.567 94.88 343.407 94.32 352.127 94.32H355.127V91.56C355.127 87.64 354.287 84.8 352.607 83.04C350.927 81.2 348.207 80.28 344.447 80.28C342.127 80.28 339.767 80.64 337.367 81.36C334.967 82 332.127 82.96 328.847 84.24C326.767 85.28 325.247 85.8 324.287 85.8C322.847 85.8 321.647 85.28 320.687 84.24C319.807 83.2 319.367 81.84 319.367 80.16C319.367 78.8 319.687 77.64 320.327 76.68C321.047 75.64 322.207 74.68 323.807 73.8C326.607 72.28 329.927 71.08 333.767 70.2C337.687 69.32 341.527 68.88 345.287 68.88ZM341.567 119.16C345.567 119.16 348.807 117.84 351.287 115.2C353.847 112.48 355.127 109 355.127 104.76V102.24H352.967C347.607 102.24 343.447 102.48 340.487 102.96C337.527 103.44 335.407 104.28 334.127 105.48C332.847 106.68 332.207 108.32 332.207 110.4C332.207 112.96 333.087 115.08 334.847 116.76C336.687 118.36 338.927 119.16 341.567 119.16ZM425.572 73.44C426.212 72 427.052 70.96 428.092 70.32C429.212 69.6 430.412 69.24 431.692 69.24C433.532 69.24 435.172 69.88 436.612 71.16C438.132 72.36 438.892 73.88 438.892 75.72C438.892 76.6 438.652 77.52 438.172 78.48L405.412 147.12C404.052 149.84 401.932 151.2 399.052 151.2C397.212 151.2 395.572 150.6 394.132 149.4C392.772 148.28 392.092 146.84 392.092 145.08C392.092 144.2 392.332 143.2 392.812 142.08L400.972 124.92L378.652 78.48C378.252 77.68 378.052 76.76 378.052 75.72C378.052 73.88 378.812 72.32 380.332 71.04C381.932 69.76 383.732 69.12 385.732 69.12C387.092 69.12 388.332 69.48 389.452 70.2C390.572 70.84 391.452 71.88 392.092 73.32L408.892 110.4L425.572 73.44ZM479.448 55.56C475.768 55.8 473.088 56.92 471.408 58.92C469.728 60.92 468.888 63.8 468.888 67.56V70.32H479.088C483.568 70.32 485.808 72.2 485.808 75.96C485.808 79.72 483.568 81.6 479.088 81.6H468.888V122.52C468.888 124.84 468.168 126.6 466.728 127.8C465.368 129 463.608 129.6 461.448 129.6C459.288 129.6 457.488 129 456.048 127.8C454.608 126.6 453.888 124.84 453.888 122.52V81.6H447.888C443.408 81.6 441.168 79.72 441.168 75.96C441.168 72.2 443.408 70.32 447.888 70.32H453.888V69.48C453.888 61.96 455.848 56.08 459.768 51.84C463.768 47.52 469.368 45.08 476.568 44.52L479.688 44.28C482.888 44.04 485.128 44.4 486.408 45.36C487.768 46.24 488.448 47.64 488.448 49.56C488.448 53 486.488 54.92 482.568 55.32L479.448 55.56ZM517.67 68.88C525.83 68.88 531.87 70.92 535.79 75C539.79 79 541.79 85.12 541.79 93.36V122.64C541.79 124.8 541.15 126.52 539.87 127.8C538.59 129 536.83 129.6 534.59 129.6C532.51 129.6 530.79 128.96 529.43 127.68C528.15 126.4 527.51 124.72 527.51 122.64V120C526.15 123.12 523.99 125.56 521.03 127.32C518.15 129.08 514.79 129.96 510.95 129.96C507.03 129.96 503.47 129.16 500.27 127.56C497.07 125.96 494.55 123.76 492.71 120.96C490.87 118.16 489.95 115.04 489.95 111.6C489.95 107.28 491.03 103.88 493.19 101.4C495.43 98.92 499.03 97.12 503.99 96C508.95 94.88 515.79 94.32 524.51 94.32H527.51V91.56C527.51 87.64 526.67 84.8 524.99 83.04C523.31 81.2 520.59 80.28 516.83 80.28C514.51 80.28 512.15 80.64 509.75 81.36C507.35 82 504.51 82.96 501.23 84.24C499.15 85.28 497.63 85.8 496.67 85.8C495.23 85.8 494.03 85.28 493.07 84.24C492.19 83.2 491.75 81.84 491.75 80.16C491.75 78.8 492.07 77.64 492.71 76.68C493.43 75.64 494.59 74.68 496.19 73.8C498.99 72.28 502.31 71.08 506.15 70.2C510.07 69.32 513.91 68.88 517.67 68.88ZM513.95 119.16C517.95 119.16 521.19 117.84 523.67 115.2C526.23 112.48 527.51 109 527.51 104.76V102.24H525.35C519.99 102.24 515.83 102.48 512.87 102.96C509.91 103.44 507.79 104.28 506.51 105.48C505.23 106.68 504.59 108.32 504.59 110.4C504.59 112.96 505.47 115.08 507.23 116.76C509.07 118.36 511.31 119.16 513.95 119.16ZM564.474 129.72C562.314 129.72 560.514 129.12 559.074 127.92C557.714 126.64 557.034 124.84 557.034 122.52V76.2C557.034 73.88 557.714 72.12 559.074 70.92C560.514 69.72 562.314 69.12 564.474 69.12C566.634 69.12 568.434 69.72 569.874 70.92C571.314 72.12 572.034 73.88 572.034 76.2V122.52C572.034 124.84 571.314 126.64 569.874 127.92C568.434 129.12 566.634 129.72 564.474 129.72ZM564.474 58.44C561.754 58.44 559.594 57.72 557.994 56.28C556.394 54.76 555.594 52.8 555.594 50.4C555.594 48 556.394 46.08 557.994 44.64C559.594 43.2 561.754 42.48 564.474 42.48C567.114 42.48 569.234 43.2 570.834 44.64C572.514 46.08 573.354 48 573.354 50.4C573.354 52.8 572.554 54.76 570.954 56.28C569.354 57.72 567.194 58.44 564.474 58.44ZM620.263 69.12C622.343 68.96 623.983 69.4 625.183 70.44C626.383 71.48 626.983 73.04 626.983 75.12C626.983 77.28 626.463 78.88 625.423 79.92C624.383 80.96 622.503 81.64 619.783 81.96L616.183 82.32C611.463 82.8 607.983 84.4 605.743 87.12C603.583 89.84 602.503 93.24 602.503 97.32V122.52C602.503 124.84 601.783 126.64 600.343 127.92C598.903 129.12 597.103 129.72 594.943 129.72C592.783 129.72 590.983 129.12 589.543 127.92C588.183 126.64 587.503 124.84 587.503 122.52V76.08C587.503 73.84 588.183 72.12 589.543 70.92C590.983 69.72 592.743 69.12 594.823 69.12C596.903 69.12 598.583 69.72 599.863 70.92C601.143 72.04 601.783 73.68 601.783 75.84V80.64C603.303 77.12 605.543 74.4 608.503 72.48C611.543 70.56 614.903 69.48 618.583 69.24L620.263 69.12Z"
    fill="#088C67"/>
  <path
    d="M94.0809 14.5701C131.406 14.5701 161.881 45.4078 161.881 83.4599C161.881 121.512 131.545 152.35 94.0809 152.35H61.0895C57.5947 152.35 54.3795 153.623 51.8632 155.886L20.969 182.339C20.27 183.046 19.4312 183.329 18.4526 183.329C16.2159 183.329 14.3988 181.49 14.3988 179.227V166.92V137.78V83.4599C14.3988 45.4078 44.7339 14.5701 82.1984 14.5701H94.0809V14.5701ZM94.0809 0H82.0585C36.7655 0 0 37.4862 0 83.6013V137.921V167.061V179.368C0 189.694 8.24776 198.04 18.3129 198.04C22.6465 198.04 26.8403 196.484 30.0555 193.514L60.9498 167.061H93.9409C139.234 167.061 176 129.575 176 83.6013C176.139 37.4862 139.374 0 94.0809 0Z"
    fill="#088C67"/>
  <path
    d="M76.4667 59.2715C72.9719 59.2715 70.0364 62.2421 70.0364 65.7785V104.679C70.0364 108.216 72.9719 111.186 76.4667 111.186C79.9615 111.186 82.8972 108.216 82.8972 104.679V65.7785C82.8972 62.1006 79.9615 59.2715 76.4667 59.2715Z"
    fill="#088C67"/>
  <path
    d="M98.834 86.7134C95.339 86.7134 92.4033 89.684 92.4033 93.2205V119.107C92.4033 122.644 95.339 125.614 98.834 125.614C102.329 125.614 105.265 122.644 105.265 119.107V93.2205C105.265 89.684 102.329 86.7134 98.834 86.7134Z"
    fill="#FF596A"/>
  <path
    d="M54.2398 72.1436C50.7448 72.1436 47.8088 75.1141 47.8088 78.6506V119.249C47.8088 122.785 50.7448 125.756 54.2398 125.756C57.7348 125.756 60.6706 122.785 60.6706 119.249V78.6506C60.5308 75.1141 57.7348 72.1436 54.2398 72.1436Z"
    fill="#088C67"/>
  <path
    d="M121.201 51.0664C117.706 51.0664 114.77 54.037 114.77 57.5734V104.679C114.77 108.215 117.706 111.186 121.201 111.186C124.695 111.186 127.631 108.215 127.631 104.679V57.5734C127.491 54.037 124.695 51.0664 121.201 51.0664Z"
    fill="#088C67"/>
</svg>
