<svg width="652" height="199" viewBox="0 0 652 199" fill="none" xmlns="http://www.w3.org/2000/svg">
  <path d="M214.885 129.96C209.765 129.96 207.205 127.32 207.205 122.04V52.2C207.205 47 209.805 44.4 215.005 44.4H243.925C253.205 44.4 260.365 46.72 265.405 51.36C270.445 56 272.965 62.48 272.965 70.8C272.965 79.12 270.445 85.64 265.405 90.36C260.365 95 253.205 97.32 243.925 97.32H222.565V122.04C222.565 127.32 220.005 129.96 214.885 129.96ZM222.565 85.2H241.525C252.565 85.2 258.085 80.4 258.085 70.8C258.085 61.28 252.565 56.52 241.525 56.52H222.565V85.2ZM304.086 130.2C290.726 130.2 284.046 122.72 284.046 107.76V51C284.046 45.96 286.526 43.44 291.486 43.44C296.526 43.44 299.046 45.96 299.046 51V107.04C299.046 114.24 302.046 117.84 308.046 117.84C308.686 117.84 309.286 117.84 309.846 117.84C310.406 117.76 310.966 117.68 311.526 117.6C312.646 117.44 313.406 117.76 313.806 118.56C314.206 119.28 314.406 120.8 314.406 123.12C314.406 125.12 314.006 126.68 313.206 127.8C312.406 128.92 311.086 129.6 309.246 129.84C307.566 130.08 305.846 130.2 304.086 130.2ZM341.686 130.2C337.446 130.2 333.646 129.4 330.286 127.8C327.006 126.12 324.406 123.88 322.486 121.08C320.646 118.28 319.726 115.12 319.726 111.6C319.726 107.28 320.846 103.88 323.086 101.4C325.326 98.84 328.966 97 334.006 95.88C339.046 94.76 345.806 94.2 354.286 94.2H358.486V91.68C358.486 87.68 357.606 84.8 355.846 83.04C354.086 81.28 351.126 80.4 346.966 80.4C344.646 80.4 342.126 80.68 339.406 81.24C336.766 81.8 333.966 82.76 331.006 84.12C329.086 85 327.486 85.12 326.206 84.48C324.926 83.76 324.046 82.68 323.566 81.24C323.166 79.72 323.246 78.2 323.806 76.68C324.446 75.16 325.686 74.04 327.526 73.32C331.206 71.8 334.726 70.72 338.086 70.08C341.526 69.44 344.646 69.12 347.446 69.12C356.006 69.12 362.366 71.12 366.526 75.12C370.686 79.04 372.766 85.16 372.766 93.48V122.28C372.766 127.4 370.446 129.96 365.806 129.96C361.086 129.96 358.726 127.4 358.726 122.28V119.64C357.366 122.92 355.206 125.52 352.246 127.44C349.286 129.28 345.766 130.2 341.686 130.2ZM344.806 119.88C348.726 119.88 351.966 118.52 354.526 115.8C357.166 113.08 358.486 109.64 358.486 105.48V102.84H354.406C346.886 102.84 341.646 103.44 338.686 104.64C335.806 105.76 334.366 107.84 334.366 110.88C334.366 113.52 335.286 115.68 337.126 117.36C338.966 119.04 341.526 119.88 344.806 119.88ZM402.285 151.56C399.565 151.56 397.685 150.56 396.645 148.56C395.605 146.56 395.645 144.28 396.765 141.72L403.605 126.6L383.085 79.32C381.965 76.68 381.965 74.36 383.085 72.36C384.205 70.36 386.405 69.36 389.685 69.36C391.525 69.36 393.005 69.8 394.125 70.68C395.245 71.48 396.245 73.04 397.125 75.36L411.525 111.36L426.285 75.24C427.165 73 428.205 71.48 429.405 70.68C430.605 69.8 432.205 69.36 434.205 69.36C436.765 69.36 438.565 70.36 439.605 72.36C440.645 74.36 440.605 76.64 439.485 79.2L410.325 145.8C409.285 148.04 408.165 149.56 406.965 150.36C405.765 151.16 404.205 151.56 402.285 151.56ZM463.027 129.96C457.987 129.96 455.467 127.4 455.467 122.28V81.6H449.947C445.947 81.6 443.947 79.72 443.947 75.96C443.947 72.2 445.947 70.32 449.947 70.32H455.467V70.2C455.467 61.96 457.547 55.8 461.707 51.72C465.867 47.56 471.867 45.12 479.707 44.4L483.787 44.04C485.867 43.88 487.387 44.32 488.347 45.36C489.307 46.4 489.787 47.68 489.787 49.2C489.867 50.64 489.507 51.96 488.707 53.16C487.907 54.28 486.747 54.92 485.227 55.08L483.547 55.2C478.987 55.52 475.667 56.68 473.587 58.68C471.507 60.68 470.467 63.72 470.467 67.8V70.32H480.667C484.667 70.32 486.667 72.2 486.667 75.96C486.667 79.72 484.667 81.6 480.667 81.6H470.467V122.28C470.467 127.4 467.987 129.96 463.027 129.96ZM513.952 130.2C509.712 130.2 505.912 129.4 502.552 127.8C499.272 126.12 496.672 123.88 494.752 121.08C492.912 118.28 491.992 115.12 491.992 111.6C491.992 107.28 493.112 103.88 495.352 101.4C497.592 98.84 501.232 97 506.272 95.88C511.312 94.76 518.072 94.2 526.552 94.2H530.752V91.68C530.752 87.68 529.872 84.8 528.112 83.04C526.352 81.28 523.392 80.4 519.232 80.4C516.912 80.4 514.392 80.68 511.672 81.24C509.032 81.8 506.232 82.76 503.272 84.12C501.352 85 499.752 85.12 498.472 84.48C497.192 83.76 496.312 82.68 495.832 81.24C495.432 79.72 495.512 78.2 496.072 76.68C496.712 75.16 497.952 74.04 499.792 73.32C503.472 71.8 506.992 70.72 510.352 70.08C513.792 69.44 516.912 69.12 519.712 69.12C528.272 69.12 534.632 71.12 538.792 75.12C542.952 79.04 545.032 85.16 545.032 93.48V122.28C545.032 127.4 542.712 129.96 538.072 129.96C533.352 129.96 530.992 127.4 530.992 122.28V119.64C529.632 122.92 527.472 125.52 524.512 127.44C521.552 129.28 518.032 130.2 513.952 130.2ZM517.072 119.88C520.992 119.88 524.232 118.52 526.792 115.8C529.432 113.08 530.752 109.64 530.752 105.48V102.84H526.672C519.152 102.84 513.912 103.44 510.952 104.64C508.072 105.76 506.632 107.84 506.632 110.88C506.632 113.52 507.552 115.68 509.392 117.36C511.232 119.04 513.792 119.88 517.072 119.88ZM567.697 58.32C564.897 58.32 562.697 57.64 561.097 56.28C559.577 54.84 558.817 52.88 558.817 50.4C558.817 47.84 559.577 45.88 561.097 44.52C562.697 43.16 564.897 42.48 567.697 42.48C573.617 42.48 576.577 45.12 576.577 50.4C576.577 55.68 573.617 58.32 567.697 58.32ZM567.697 129.84C565.297 129.84 563.457 129.12 562.177 127.68C560.897 126.24 560.257 124.24 560.257 121.68V77.64C560.257 72.2 562.737 69.48 567.697 69.48C572.737 69.48 575.257 72.2 575.257 77.64V121.68C575.257 124.24 574.617 126.24 573.337 127.68C572.057 129.12 570.177 129.84 567.697 129.84ZM598.523 129.96C593.403 129.96 590.843 127.4 590.843 122.28V76.92C590.843 71.88 593.283 69.36 598.163 69.36C603.043 69.36 605.483 71.88 605.483 76.92V80.64C608.363 73.76 614.523 69.92 623.963 69.12C627.403 68.72 629.323 70.68 629.723 75C630.123 79.24 628.043 81.6 623.483 82.08L620.843 82.32C611.003 83.28 606.083 88.32 606.083 97.44V122.28C606.083 127.4 603.563 129.96 598.523 129.96Z" fill="white"/>
  <path d="M94.0809 14.5701C131.406 14.5701 161.881 45.4078 161.881 83.4599C161.881 121.512 131.545 152.35 94.0809 152.35H61.0895C57.5947 152.35 54.3795 153.623 51.8632 155.886L20.969 182.339C20.27 183.046 19.4312 183.329 18.4526 183.329C16.2159 183.329 14.3988 181.49 14.3988 179.227V166.92V137.78V83.4599C14.3988 45.4078 44.7339 14.5701 82.1984 14.5701H94.0809V14.5701ZM94.0809 0H82.0585C36.7655 0 0 37.4862 0 83.6013V137.921V167.061V179.368C0 189.694 8.24776 198.04 18.3129 198.04C22.6465 198.04 26.8403 196.484 30.0555 193.514L60.9498 167.061H93.9409C139.234 167.061 176 129.575 176 83.6013C176.139 37.4862 139.374 0 94.0809 0Z" fill="white"/>
  <path d="M76.4667 59.2715C72.9719 59.2715 70.0364 62.2421 70.0364 65.7785V104.679C70.0364 108.216 72.9719 111.186 76.4667 111.186C79.9615 111.186 82.8972 108.216 82.8972 104.679V65.7785C82.8972 62.1006 79.9615 59.2715 76.4667 59.2715Z" fill="white"/>
  <path d="M98.834 86.7134C95.339 86.7134 92.4033 89.684 92.4033 93.2205V119.107C92.4033 122.644 95.339 125.614 98.834 125.614C102.329 125.614 105.265 122.644 105.265 119.107V93.2205C105.265 89.684 102.329 86.7134 98.834 86.7134Z" fill="#FF596A"/>
  <path d="M54.2398 72.1436C50.7448 72.1436 47.8088 75.1141 47.8088 78.6506V119.249C47.8088 122.785 50.7448 125.756 54.2398 125.756C57.7348 125.756 60.6706 122.785 60.6706 119.249V78.6506C60.5308 75.1141 57.7348 72.1436 54.2398 72.1436Z" fill="white"/>
  <path d="M121.201 51.0664C117.706 51.0664 114.77 54.037 114.77 57.5734V104.679C114.77 108.215 117.706 111.186 121.201 111.186C124.695 111.186 127.631 108.215 127.631 104.679V57.5734C127.491 54.037 124.695 51.0664 121.201 51.0664Z" fill="white"/>
</svg>
